<?xml version="1.0" encoding="UTF-8"?>
<svg width="24px" height="24px" viewBox="0 0 24 24" version="1.1" xmlns="http://www.w3.org/2000/svg">
    <g stroke="none" stroke-width="1" fill="none" fill-rule="evenodd">
        <path d="M7,4 L17,4 C17.5523,4 18,4.44772 18,5 L18,6 L19,6 C20.1046,6 21,6.89543 21,8 L21,16 C21,17.1046 20.1046,18 19,18 L18,18 L18,19 C18,19.5523 17.5523,20 17,20 L7,20 C6.44772,20 6,19.5523 6,19 L6,18 L5,18 C3.89543,18 3,17.1046 3,16 L3,8 C3,6.89543 3.89543,6 5,6 L6,6 L6,5 C6,4.44772 6.44772,4 7,4 Z M7,6 L7,18 L17,18 L17,6 L7,6 Z M5,8 L5,16 L6,16 L6,8 L5,8 Z M18,8 L18,16 L19,16 L19,8 L18,8 Z M14,9 C14.5523,9 15,9.44772 15,10 L15,14 C15,14.5523 14.5523,15 14,15 L10,15 C9.44772,15 9,14.5523 9,14 L9,10 C9,9.44772 9.44772,9 10,9 L14,9 Z M13,11 L11,11 L11,13 L13,13 L13,11 Z" fill="#FFFFFF" fill-rule="nonzero"></path>
    </g>
</svg>
