<?xml version="1.0" encoding="UTF-8"?>
<svg width="24px" height="24px" viewBox="0 0 24 24" version="1.1" xmlns="http://www.w3.org/2000/svg">
    <g stroke="none" stroke-width="1" fill="none" fill-rule="evenodd">
        <path d="M12,2 C17.5228,2 22,6.47715 22,12 C22,17.5228 17.5228,22 12,22 C6.47715,22 2,17.5228 2,12 C2,6.47715 6.47715,2 12,2 Z M12,4 C7.58172,4 4,7.58172 4,12 C4,16.4183 7.58172,20 12,20 C16.4183,20 20,16.4183 20,12 C20,7.58172 16.4183,4 12,4 Z M12,5 C15.866,5 19,8.13401 19,12 C19,15.866 15.866,19 12,19 C8.13401,19 5,15.866 5,12 C5,8.13401 8.13401,5 12,5 Z M11,8 L11,12.5 L15,15 L16,13.5 L13,11.5 L13,8 L11,8 Z" fill="#FFFFFF" fill-rule="nonzero"></path>
    </g>
</svg>
